<svg width="18" height="20" viewBox="0 0 18 20" fill="none" xmlns="http://www.w3.org/2000/svg">
<path d="M17.1818 5H13.7045V4.6C13.7045 2.06 11.5977 0 9 0C6.40227 0 4.29545 2.06 4.29545 4.6V5H0.818182C0.365625 5 0 5.3575 0 5.8V19.2C0 19.6425 0.365625 20 0.818182 20H17.1818C17.6344 20 18 19.6425 18 19.2V5.8C18 5.3575 17.6344 5 17.1818 5ZM6.13636 4.6C6.13636 3.0525 7.41733 1.8 9 1.8C10.5827 1.8 11.8636 3.0525 11.8636 4.6V5H6.13636V4.6ZM16.1591 18.2H1.84091V6.8H4.29545V9C4.29545 9.11 4.3875 9.2 4.5 9.2H5.93182C6.04432 9.2 6.13636 9.11 6.13636 9V6.8H11.8636V9C11.8636 9.11 11.9557 9.2 12.0682 9.2H13.5C13.6125 9.2 13.7045 9.11 13.7045 9V6.8H16.1591V18.2Z" fill="#45564D"/>
</svg>
