<svg width="175" height="26" viewBox="0 0 175 26" fill="none" xmlns="http://www.w3.org/2000/svg">
<path d="M12.6292 26C8.58388 26 5.48746 24.8947 3.33993 22.6841C1.19241 20.448 0.118652 17.4116 0.118652 13.5748C0.118652 9.50931 1.15496 6.34584 3.22756 4.08441C5.32514 1.82298 8.44654 0.69226 12.5918 0.69226C14.0401 0.69226 15.3386 0.806602 16.4873 1.03529C17.6609 1.23856 18.7596 1.53077 19.7835 1.91191V6.40936C17.6609 5.52004 15.3885 5.07537 12.9663 5.07537C10.2195 5.07537 8.24677 5.77413 7.04816 7.17164C5.84954 8.56916 5.25023 10.7035 5.25023 13.5748C5.25023 18.9616 7.84723 21.655 13.0412 21.655C14.2149 21.655 15.376 21.5533 16.5247 21.3501C17.6734 21.1214 18.7721 20.7911 19.8209 20.3591V24.8947C18.7971 25.225 17.6984 25.4918 16.5247 25.6951C15.376 25.8983 14.0775 26 12.6292 26Z" fill="white"/>
<path d="M32.2045 26C28.8833 26 26.4486 25.1869 24.9004 23.5607C23.3522 21.9091 22.5781 19.5841 22.5781 16.5858C22.5781 13.5875 23.3522 11.2753 24.9004 9.64906C26.4736 7.99745 28.9083 7.17164 32.2045 7.17164C35.5256 7.17164 37.9603 7.99745 39.5085 9.64906C41.0817 11.2753 41.8683 13.5875 41.8683 16.5858C41.8683 19.5841 41.0942 21.9091 39.546 23.5607C37.9978 25.1869 35.5506 26 32.2045 26ZM32.2045 21.6169C33.8276 21.6169 34.9888 21.2484 35.688 20.5116C36.3871 19.7493 36.7367 18.4407 36.7367 16.5858C36.7367 14.7309 36.3871 13.4351 35.688 12.6982C34.9888 11.9359 33.8276 11.5548 32.2045 11.5548C30.6063 11.5548 29.4576 11.9359 28.7585 12.6982C28.0593 13.4351 27.7097 14.7309 27.7097 16.5858C27.7097 18.4407 28.0593 19.7493 28.7585 20.5116C29.4576 21.2484 30.6063 21.6169 32.2045 21.6169Z" fill="white"/>
<path d="M51.4567 26C50.1332 26 48.8722 25.8983 47.6735 25.6951C46.4749 25.5172 45.5135 25.2885 44.7894 25.009V20.7402C45.6634 21.096 46.6497 21.3755 47.7484 21.5787C48.8472 21.7566 49.8585 21.8455 50.7824 21.8455C52.031 21.8455 52.905 21.7693 53.4044 21.6169C53.9288 21.4644 54.191 21.1214 54.191 20.5878C54.191 19.978 53.7915 19.5333 52.9924 19.2538C52.2183 18.9743 51.0571 18.5804 49.5089 18.0723C47.8858 17.5133 46.6372 16.8399 45.7632 16.0522C44.8892 15.2645 44.4523 14.0957 44.4523 12.5457C44.4523 10.8179 45.064 9.4966 46.2876 8.58186C47.5362 7.64172 49.5339 7.17164 52.2807 7.17164C53.3795 7.17164 54.4157 7.26058 55.3896 7.43844C56.3635 7.5909 57.1876 7.78147 57.8618 8.01015V12.2408C57.1876 11.9105 56.4134 11.6691 55.5395 11.5166C54.6655 11.3388 53.8539 11.2498 53.1048 11.2498C52.031 11.2498 51.1695 11.3261 50.5202 11.4785C49.896 11.631 49.5838 11.9613 49.5838 12.4695C49.5838 13.0285 49.9209 13.4223 50.5952 13.651C51.2944 13.8797 52.3681 14.2227 53.8164 14.6801C55.2398 15.1121 56.351 15.5821 57.1501 16.0903C57.9492 16.5985 58.511 17.2083 58.8357 17.9198C59.1603 18.6059 59.3226 19.4698 59.3226 20.5116C59.3226 24.1705 56.7006 26 51.4567 26Z" fill="white"/>
<path d="M62.8324 25.6188V7.55278H67.5145L67.7018 9.30603C68.5508 8.64539 69.4747 8.1245 70.4736 7.74336C71.4974 7.36222 72.5961 7.17164 73.7698 7.17164C75.0183 7.17164 75.9797 7.36222 76.654 7.74336C77.3532 8.1245 77.89 8.6708 78.2646 9.38226C79.0886 8.72161 80.0251 8.18802 81.0739 7.78147C82.1476 7.37492 83.4087 7.17164 84.857 7.17164C86.9046 7.17164 88.4154 7.71795 89.3893 8.81055C90.3631 9.87774 90.8501 11.5166 90.8501 13.7273V25.6188H85.8683V14.299C85.8683 13.1047 85.6186 12.2535 85.1192 11.7453C84.6198 11.2117 83.8207 10.9449 82.722 10.9449C81.2237 10.9449 79.9751 11.4912 78.9763 12.5838C79.1011 13.0158 79.1636 13.5367 79.1636 14.1465V25.6188H74.444V14.299C74.444 13.181 74.2567 12.3424 73.8822 11.7834C73.5076 11.2244 72.7834 10.9449 71.7097 10.9449C70.9605 10.9449 70.2488 11.1482 69.5746 11.5548C68.9254 11.9359 68.3386 12.3806 67.8142 12.8887V25.6188H62.8324Z" fill="white"/>
<path d="M103.652 26C100.58 26 98.1457 25.225 96.3477 23.675C94.5498 22.0996 93.6508 19.7239 93.6508 16.5477C93.6508 13.6764 94.4 11.4023 95.8982 9.72528C97.4215 8.02286 99.6814 7.17164 102.678 7.17164C105.425 7.17164 107.522 7.90852 108.971 9.38226C110.444 10.8306 111.181 12.7363 111.181 15.0994V18.3772H98.3329C98.6076 19.8255 99.2569 20.8165 100.281 21.3501C101.329 21.8837 102.803 22.1505 104.701 22.1505C105.649 22.1505 106.611 22.0615 107.585 21.8837C108.584 21.7058 109.433 21.4771 110.132 21.1976V24.8566C109.308 25.2377 108.346 25.5172 107.248 25.6951C106.149 25.8983 104.95 26 103.652 26ZM98.3329 15.2137H106.761V14.2227C106.761 13.181 106.461 12.3679 105.862 11.7834C105.262 11.1736 104.251 10.8687 102.828 10.8687C101.155 10.8687 99.981 11.2117 99.3068 11.8978C98.6576 12.5838 98.3329 13.6891 98.3329 15.2137Z" fill="white"/>
<path d="M121.743 26C119.695 26 118.172 25.4537 117.173 24.3611C116.2 23.2685 115.713 21.782 115.713 19.9017V11.5166H113.203V7.55278H115.713V3.66515L120.769 2.14059V7.55278H125.264L124.964 11.5166H120.769V19.5587C120.769 20.5497 120.994 21.2357 121.443 21.6169C121.893 21.9726 122.592 22.1505 123.541 22.1505C124.24 22.1505 124.964 22.0234 125.714 21.7693V25.3139C125.164 25.5426 124.565 25.7078 123.916 25.8094C123.266 25.9365 122.542 26 121.743 26Z" fill="white"/>
<path d="M129.545 4.23686V0.196777H135.051V4.23686H129.545ZM129.957 25.6188V11.3642H127.297L127.747 7.55278H135.013V25.6188H129.957Z" fill="white"/>
<path d="M168.033 25.6188V19.1775H175V25.6188H168.033Z" fill="#398B60"/>
<path d="M137.746 25.6189L146.885 13.0794L138.195 1.07349H149.02L152.316 5.60905L155.65 1.07349H166.475L157.785 13.0794L166.924 25.6189H155.95L152.316 20.626L148.72 25.6189H137.746Z" fill="#398B60"/>
</svg>
