<svg width="45" height="30" viewBox="0 0 45 30" fill="none" xmlns="http://www.w3.org/2000/svg">
<rect x="0.264648" width="43.7551" height="30" rx="4" fill="white"/>
<path fill-rule="evenodd" clip-rule="evenodd" d="M20.9298 19.6976V15.9214H22.879C23.6777 15.9214 24.3519 15.6538 24.9014 15.126L25.0333 14.9922C26.0372 13.8995 25.9713 12.1972 24.9014 11.1863C24.3665 10.6511 23.6337 10.3612 22.879 10.376H19.75V19.6976H20.9298ZM20.9299 14.777V11.5208H22.9087C23.3338 11.5208 23.7369 11.6843 24.0374 11.9817C24.675 12.6062 24.6897 13.647 24.074 14.2938C23.7735 14.6134 23.3485 14.7919 22.9087 14.777H20.9299ZM30.5361 13.8175C30.0305 13.3492 29.3417 13.1113 28.4697 13.1113C27.3486 13.1113 26.5059 13.5276 25.9489 14.3527L26.9895 15.0143C27.3705 14.4493 27.8908 14.1669 28.5503 14.1669C28.968 14.1669 29.371 14.323 29.6861 14.6055C29.9939 14.8731 30.1698 15.2596 30.1698 15.6684V15.9435C29.7154 15.6907 29.1439 15.5569 28.4404 15.5569C27.6197 15.5569 26.9602 15.7502 26.4692 16.1442C25.9783 16.5381 25.7291 17.0585 25.7291 17.7201C25.7145 18.3222 25.9709 18.8946 26.4253 19.2811C26.8869 19.6974 27.4731 19.9055 28.1619 19.9055C28.9753 19.9055 29.6202 19.5413 30.1111 18.8128H30.1624V19.6974H31.2909V15.7651C31.2909 14.94 31.0418 14.2858 30.5361 13.8175ZM27.3337 18.523C27.0919 18.3446 26.9453 18.0547 26.9453 17.7424C26.9453 17.393 27.1065 17.1031 27.4217 16.8726C27.7442 16.6422 28.1473 16.5232 28.6236 16.5232C29.2833 16.5158 29.7963 16.6645 30.1627 16.9618C30.1627 17.4674 29.9648 17.906 29.5764 18.2777C29.2246 18.6346 28.7482 18.8353 28.2499 18.8353C27.9201 18.8427 27.5976 18.7312 27.3337 18.523ZM33.8267 22.5L37.7691 13.3197H36.4867L34.6621 17.8987H34.6401L32.7715 13.3197H31.4892L34.0759 19.2887L32.6103 22.5H33.8267Z" fill="#3C4043"/>
<path d="M16.8565 15.104C16.8565 14.7397 16.8272 14.3754 16.7685 14.0186H11.793V16.0779H14.6435C14.5262 16.7395 14.1452 17.3343 13.5883 17.706V19.0441H15.2883C16.2849 18.1149 16.8565 16.7395 16.8565 15.104Z" fill="#4285F4"/>
<path d="M11.7938 20.3373C13.2154 20.3373 14.4172 19.8615 15.2892 19.0437L13.5891 17.7055C13.1128 18.0326 12.5046 18.2185 11.7938 18.2185C10.4162 18.2185 9.25106 17.2743 8.83337 16.0105H7.08203V17.3933C7.97602 19.1998 9.80064 20.3373 11.7938 20.3373Z" fill="#34A853"/>
<path d="M8.83341 16.011C8.61354 15.3493 8.61354 14.6282 8.83341 13.9591V12.5837H7.08179C6.3269 14.0929 6.3269 15.8771 7.08179 17.3863L8.83341 16.011Z" fill="#FBBC04"/>
<path d="M11.7938 11.7514C12.5486 11.7366 13.274 12.0265 13.8163 12.5543L15.3258 11.0229C14.3659 10.1159 13.1055 9.61778 11.7938 9.63265C9.80064 9.63265 7.97602 10.7775 7.08203 12.5841L8.83337 13.9669C9.25106 12.6956 10.4162 11.7514 11.7938 11.7514Z" fill="#EA4335"/>
</svg>
