<svg width="199" height="29" viewBox="0 0 199 29" fill="none" xmlns="http://www.w3.org/2000/svg">
<path d="M14.3611 29C9.76094 29 6.23986 27.7671 3.79782 25.3014C1.35579 22.8074 0.134766 19.4206 0.134766 15.1411C0.134766 10.6065 1.31319 7.07805 3.67004 4.55569C6.05529 2.03332 9.60477 0.772136 14.3185 0.772136C15.9654 0.772136 17.442 0.899671 18.7482 1.15474C20.0828 1.38147 21.3322 1.7074 22.4965 2.13251V7.14891C20.0828 6.15696 17.4988 5.66099 14.7444 5.66099C11.6209 5.66099 9.3776 6.44038 8.0146 7.99914C6.6516 9.55791 5.9701 11.9386 5.9701 15.1411C5.9701 21.1495 8.92327 24.1536 14.8296 24.1536C16.1642 24.1536 17.4846 24.0403 18.7908 23.8135C20.097 23.5585 21.3464 23.19 22.5391 22.7082V27.7671C21.3748 28.1356 20.1254 28.4331 18.7908 28.6599C17.4846 28.8866 16.008 29 14.3611 29Z" fill="#398B60"/>
<path d="M36.6209 29C32.8443 29 30.0757 28.0931 28.3152 26.2792C26.5546 24.437 25.6743 21.8438 25.6743 18.4996C25.6743 15.1553 26.5546 12.5762 28.3152 10.7624C30.1041 8.92023 32.8727 7.99914 36.6209 7.99914C40.3976 7.99914 43.1662 8.92023 44.9267 10.7624C46.7156 12.5762 47.6101 15.1553 47.6101 18.4996C47.6101 21.8438 46.7298 24.437 44.9693 26.2792C43.2088 28.0931 40.426 29 36.6209 29ZM36.6209 24.1111C38.4667 24.1111 39.7871 23.7002 40.5821 22.8783C41.3772 22.028 41.7748 20.5685 41.7748 18.4996C41.7748 16.4306 41.3772 14.9852 40.5821 14.1634C39.7871 13.3131 38.4667 12.888 36.6209 12.888C34.8036 12.888 33.4974 13.3131 32.7023 14.1634C31.9072 14.9852 31.5097 16.4306 31.5097 18.4996C31.5097 20.5685 31.9072 22.028 32.7023 22.8783C33.4974 23.7002 34.8036 24.1111 36.6209 24.1111Z" fill="#398B60"/>
<path d="M58.5134 29C57.0084 29 55.5745 28.8866 54.2115 28.6599C52.8485 28.4615 51.7552 28.2064 50.9318 27.8947V23.1333C51.9256 23.5301 53.0472 23.8419 54.2967 24.0686C55.5461 24.267 56.6961 24.3662 57.7467 24.3662C59.1665 24.3662 60.1604 24.2812 60.7283 24.1111C61.3246 23.9411 61.6228 23.5585 61.6228 22.9633C61.6228 22.2831 61.1684 21.7871 60.2598 21.4754C59.3795 21.1636 58.0591 20.7243 56.2986 20.1575C54.4528 19.534 53.033 18.783 52.0392 17.9044C51.0453 17.0258 50.5484 15.7221 50.5484 13.9933C50.5484 12.0661 51.2441 10.5924 52.6355 9.57208C54.0553 8.52345 56.327 7.99914 59.4505 7.99914C60.6999 7.99914 61.8783 8.09834 62.9858 8.29673C64.0932 8.46677 65.0303 8.67933 65.797 8.9344V13.6532C65.0303 13.2848 64.15 13.0155 63.1561 12.8455C62.1623 12.6471 61.2394 12.5479 60.3876 12.5479C59.1665 12.5479 58.1869 12.6329 57.4486 12.803C56.7387 12.973 56.3837 13.3415 56.3837 13.9083C56.3837 14.5318 56.7671 14.9711 57.5338 15.2261C58.3289 15.4812 59.5499 15.8638 61.1968 16.374C62.8154 16.8558 64.079 17.3801 64.9877 17.9469C65.8963 18.5137 66.5352 19.1939 66.9044 19.9875C67.2735 20.7527 67.4581 21.7163 67.4581 22.8783C67.4581 26.9594 64.4765 29 58.5134 29Z" fill="#398B60"/>
<path d="M71.4493 28.5749V8.42426H76.7735L76.9865 10.3798C77.9519 9.64293 79.0025 9.06194 80.1384 8.63682C81.3026 8.2117 82.552 7.99914 83.8866 7.99914C85.3064 7.99914 86.3997 8.2117 87.1664 8.63682C87.9614 9.06194 88.5719 9.67127 88.9979 10.4648C89.9349 9.72795 90.9998 9.13279 92.1924 8.67933C93.4134 8.22587 94.8474 7.99914 96.4944 7.99914C98.8228 7.99914 100.541 8.60848 101.648 9.82715C102.756 11.0175 103.309 12.8455 103.309 15.3112V28.5749H97.6444V15.9488C97.6444 14.6168 97.3604 13.6674 96.7925 13.1006C96.2246 12.5054 95.3159 12.2078 94.0665 12.2078C92.3628 12.2078 90.943 12.8171 89.8072 14.0358C89.9491 14.5176 90.0201 15.0986 90.0201 15.7788V28.5749H84.6533V15.9488C84.6533 14.7018 84.4403 13.7666 84.0144 13.1431C83.5885 12.5196 82.765 12.2078 81.544 12.2078C80.6921 12.2078 79.8828 12.4345 79.1161 12.888C78.3778 13.3131 77.7105 13.8091 77.1142 14.3759V28.5749H71.4493Z" fill="#398B60"/>
<path d="M117.867 29C114.374 29 111.605 28.1356 109.561 26.4068C107.516 24.6496 106.494 21.9997 106.494 18.457C106.494 15.2545 107.346 12.718 109.05 10.8474C110.782 8.94857 113.352 7.99914 116.759 7.99914C119.883 7.99914 122.268 8.82104 123.915 10.4648C125.59 12.0803 126.428 14.2059 126.428 16.8416V20.4976H111.818C112.131 22.1131 112.869 23.2184 114.033 23.8135C115.226 24.4087 116.901 24.7063 119.059 24.7063C120.138 24.7063 121.232 24.6071 122.339 24.4087C123.475 24.2103 124.44 23.9552 125.235 23.6435V27.7246C124.298 28.1497 123.205 28.4615 121.956 28.6599C120.706 28.8866 119.343 29 117.867 29ZM111.818 16.9691H121.402V15.8638C121.402 14.7018 121.061 13.7949 120.38 13.1431C119.698 12.4629 118.548 12.1228 116.93 12.1228C115.027 12.1228 113.693 12.5054 112.926 13.2706C112.188 14.0358 111.818 15.2687 111.818 16.9691Z" fill="#398B60"/>
<path d="M138.439 29C136.111 29 134.379 28.3906 133.243 27.172C132.135 25.9533 131.582 24.2953 131.582 22.1981V12.8455H128.728V8.42426H131.582V4.08806L137.332 2.38758V8.42426H142.443L142.102 12.8455H137.332V21.8155C137.332 22.9208 137.587 23.686 138.098 24.1111C138.61 24.5079 139.405 24.7063 140.484 24.7063C141.279 24.7063 142.102 24.5646 142.954 24.2812V28.2348C142.329 28.4898 141.648 28.674 140.91 28.7874C140.171 28.9291 139.348 29 138.439 29Z" fill="#398B60"/>
<path d="M147.311 4.72573V0.219482H153.572V4.72573H147.311ZM147.779 28.5749V12.6754H144.755L145.266 8.42426H153.529V28.5749H147.779Z" fill="#398B60"/>
<path d="M191.078 28.5749V21.3904H199V28.5749H191.078Z" fill="#5F766A"/>
<path d="M156.637 28.5749L167.03 14.5885L157.148 1.19727H169.457L173.206 6.25617L176.997 1.19727H189.306L179.424 14.5885L189.817 28.5749H177.337L173.206 23.0058L169.117 28.5749H156.637Z" fill="#5F766A"/>
</svg>
