<svg width="45" height="30" viewBox="0 0 45 30" fill="none" xmlns="http://www.w3.org/2000/svg">
<rect x="0.754883" width="43.7551" height="30" rx="4" fill="white"/>
<path fill-rule="evenodd" clip-rule="evenodd" d="M22.9448 21.4464C21.4552 22.7316 19.5229 23.5075 17.4116 23.5075C12.7002 23.5075 8.88086 19.6442 8.88086 14.8787C8.88086 10.1132 12.7002 6.25 17.4116 6.25C19.5229 6.25 21.4552 7.02586 22.9448 8.3111C24.4344 7.02586 26.3666 6.25 28.478 6.25C33.1893 6.25 37.0087 10.1132 37.0087 14.8787C37.0087 19.6442 33.1893 23.5075 28.478 23.5075C26.3666 23.5075 24.4344 22.7316 22.9448 21.4464Z" fill="#ED0006"/>
<path fill-rule="evenodd" clip-rule="evenodd" d="M22.9453 21.446C24.7794 19.8634 25.9424 17.5084 25.9424 14.8787C25.9424 12.249 24.7794 9.8941 22.9453 8.31143C24.435 7.026 26.3673 6.25 28.4789 6.25C33.1903 6.25 37.0096 10.1132 37.0096 14.8787C37.0096 19.6442 33.1903 23.5075 28.4789 23.5075C26.3673 23.5075 24.435 22.7315 22.9453 21.446Z" fill="#F9A000"/>
<path fill-rule="evenodd" clip-rule="evenodd" d="M22.9451 21.446C24.7793 19.8633 25.9423 17.5083 25.9423 14.8786C25.9423 12.249 24.7794 9.89419 22.9454 8.31152C21.1112 9.89419 19.9482 12.2491 19.9482 14.8788C19.9482 17.5084 21.1111 19.8633 22.9451 21.446Z" fill="#FF5E00"/>
</svg>
