<svg width="45" height="30" viewBox="0 0 45 30" fill="none" xmlns="http://www.w3.org/2000/svg">
<rect x="0.509766" width="43.7551" height="30" rx="4" fill="white"/>
<path fill-rule="evenodd" clip-rule="evenodd" d="M11.9161 11.3296H9.77277C9.6261 11.3296 9.50136 11.4362 9.47849 11.5809L8.61162 17.0763C8.59439 17.1848 8.67838 17.2826 8.78839 17.2826H9.81162C9.95829 17.2826 10.083 17.176 10.1059 17.031L10.3397 15.5488C10.3623 15.4036 10.4873 15.2972 10.6337 15.2972H11.3122C12.724 15.2972 13.5388 14.614 13.7517 13.2603C13.8476 12.6681 13.7558 12.2027 13.4783 11.8767C13.1738 11.519 12.6334 11.3296 11.9161 11.3296ZM12.1634 13.3367C12.0462 14.1057 11.4585 14.1057 10.8903 14.1057H10.5669L10.7938 12.6695C10.8073 12.5828 10.8825 12.5188 10.9703 12.5188H11.1185C11.5055 12.5188 11.8707 12.5188 12.0594 12.7394C12.1718 12.8711 12.2063 13.0666 12.1634 13.3367ZM18.323 13.3121H17.2966C17.2091 13.3121 17.1336 13.376 17.1201 13.4629L17.0747 13.7499L17.0029 13.6459C16.7807 13.3234 16.2853 13.2156 15.7907 13.2156C14.6564 13.2156 13.6878 14.0746 13.4991 15.2795C13.401 15.8804 13.5404 16.4551 13.8814 16.8559C14.1942 17.2244 14.6418 17.378 15.1742 17.378C16.088 17.378 16.5949 16.7904 16.5949 16.7904L16.5491 17.0756C16.5318 17.1847 16.6158 17.2824 16.7251 17.2824H17.6497C17.7968 17.2824 17.9208 17.1758 17.944 17.0308L18.4987 13.5183C18.5163 13.4103 18.4326 13.3121 18.323 13.3121ZM16.8922 15.3095C16.7932 15.8958 16.3278 16.2894 15.7343 16.2894C15.4363 16.2894 15.198 16.1938 15.0451 16.0127C14.8934 15.8329 14.8357 15.5768 14.884 15.2917C14.9765 14.7103 15.4497 14.304 16.0342 14.304C16.3256 14.304 16.5626 14.4007 16.7186 14.5834C16.875 14.768 16.937 15.0256 16.8922 15.3095ZM22.7578 13.3119H23.7893C23.9338 13.3119 24.018 13.4739 23.9359 13.5924L20.5055 18.5435C20.45 18.6236 20.3585 18.6714 20.2607 18.6714H19.2306C19.0855 18.6714 19.0008 18.5081 19.0848 18.3893L20.153 16.8817L19.0169 13.5482C18.9776 13.4323 19.0632 13.3119 19.1865 13.3119H20.1999C20.3316 13.3119 20.4478 13.3984 20.4858 13.5244L21.0887 15.5377L22.5113 13.4426C22.567 13.3608 22.6595 13.3119 22.7578 13.3119Z" fill="#253B80"/>
<path fill-rule="evenodd" clip-rule="evenodd" d="M33.9408 17.0757L34.8204 11.4797C34.8339 11.3929 34.9091 11.3289 34.9966 11.3286H35.9869C36.0962 11.3286 36.1802 11.4266 36.1629 11.5351L35.2955 17.0303C35.2729 17.1753 35.1482 17.2819 35.0012 17.2819H34.1168C34.0075 17.2819 33.9235 17.1841 33.9408 17.0757ZM27.2042 11.3289H25.0605C24.9142 11.3289 24.7895 11.4355 24.7666 11.5802L23.8997 17.0757C23.8825 17.1841 23.9664 17.2819 24.0759 17.2819H25.1758C25.2781 17.2819 25.3655 17.2073 25.3815 17.1058L25.6275 15.5481C25.6501 15.4029 25.7751 15.2965 25.9214 15.2965H26.5996C28.0118 15.2965 28.8264 14.6133 29.0395 13.2596C29.1356 12.6674 29.0432 12.202 28.7659 11.876C28.4615 11.5183 27.9216 11.3289 27.2042 11.3289ZM27.4515 13.336C27.3346 14.1051 26.747 14.1051 26.1784 14.1051H25.8553L26.0826 12.6688C26.0961 12.5821 26.1706 12.5182 26.2586 12.5182H26.4069C26.7937 12.5182 27.1591 12.5182 27.3477 12.7387C27.4602 12.8704 27.4944 13.0659 27.4515 13.336ZM33.6105 13.3114H32.5849C32.4967 13.3114 32.4219 13.3753 32.4087 13.4622L32.3633 13.7492L32.2912 13.6452C32.069 13.3227 31.5739 13.215 31.0793 13.215C29.945 13.215 28.9767 14.0739 28.788 15.2788C28.6902 15.8797 28.829 16.4544 29.17 16.8552C29.4834 17.2237 29.9304 17.3773 30.4628 17.3773C31.3766 17.3773 31.8834 16.7897 31.8834 16.7897L31.8377 17.0749C31.8204 17.184 31.9044 17.2817 32.0145 17.2817H32.9386C33.0849 17.2817 33.2097 17.1751 33.2326 17.0301L33.7876 13.5176C33.8046 13.4096 33.7206 13.3114 33.6105 13.3114ZM32.18 15.3088C32.0815 15.8951 31.6155 16.2887 31.0219 16.2887C30.7244 16.2887 30.4857 16.1931 30.3327 16.012C30.181 15.8322 30.124 15.5761 30.1717 15.291C30.2647 14.7096 30.7373 14.3033 31.3218 14.3033C31.6133 14.3033 31.8502 14.4 32.0064 14.5827C32.1633 14.7673 32.2253 15.0249 32.18 15.3088Z" fill="#179BD7"/>
</svg>
