<svg width="44" height="30" viewBox="0 0 44 30" fill="none" xmlns="http://www.w3.org/2000/svg">
<rect width="43.7551" height="30" rx="4" fill="white"/>
<path d="M18.7201 20.1036H16.2461L17.7935 10.5366H20.2674L18.7201 20.1036Z" fill="#00579F"/>
<path d="M27.687 10.7706C27.199 10.577 26.425 10.3633 25.468 10.3633C23.0248 10.3633 21.3044 11.666 21.2938 13.5284C21.2735 14.9025 22.5256 15.6657 23.4621 16.1239C24.4192 16.592 24.7446 16.8976 24.7446 17.3149C24.7349 17.9558 23.9712 18.2513 23.2589 18.2513C22.2711 18.2513 21.7419 18.099 20.9376 17.7424L20.6118 17.5895L20.2656 19.7371C20.8459 20.0014 21.9149 20.236 23.0248 20.2463C25.6207 20.2463 27.3107 18.9638 27.3308 16.979C27.3406 15.89 26.6795 15.0555 25.2541 14.3736C24.3888 13.9358 23.8589 13.6407 23.8589 13.1928C23.869 12.7856 24.3071 12.3686 25.2839 12.3686C26.0881 12.3481 26.6791 12.5414 27.1268 12.7349L27.3505 12.8365L27.687 10.7706Z" fill="#00579F"/>
<path d="M30.9771 16.7144C31.1809 16.1648 31.9649 14.0376 31.9649 14.0376C31.9546 14.058 32.1682 13.4778 32.2904 13.1217L32.4633 13.946C32.4633 13.946 32.9318 16.236 33.0335 16.7144C32.6468 16.7144 31.4658 16.7144 30.9771 16.7144ZM34.031 10.5366H32.1173C31.5272 10.5366 31.0789 10.7095 30.8242 11.3304L27.1494 20.1035H29.7453C29.7453 20.1035 30.1727 18.9227 30.2646 18.6684C30.5493 18.6684 33.0746 18.6684 33.441 18.6684C33.512 19.0043 33.7362 20.1035 33.7362 20.1035H36.0269L34.031 10.5366Z" fill="#00579F"/>
<path d="M14.1794 10.5366L11.7565 17.0604L11.4918 15.7373C11.0438 14.2106 9.63901 12.5519 8.07129 11.7272L10.2906 20.0935H12.9068L16.7955 10.5366H14.1794Z" fill="#00579F"/>
<path d="M9.50651 10.5366H5.52607L5.48535 10.7299C8.59035 11.524 10.6467 13.4379 11.4916 15.7383L10.6263 11.3409C10.4838 10.7298 10.046 10.5568 9.50651 10.5366Z" fill="#FAA61A"/>
</svg>
